<svg width="80" height="17" viewBox="0 0 80 17" fill="none" xmlns="http://www.w3.org/2000/svg">
<path d="M47.432 7.484C48.384 7.162 48.902 6.364 48.902 5.398C48.902 4.138 48.006 3.06 46.228 3.06H42.826V13H46.102C48.384 13 49.476 11.81 49.476 10.158C49.476 8.73 48.664 7.778 47.432 7.484ZM46.004 4.138C47.166 4.138 47.74 4.712 47.74 5.58C47.74 6.49 47.124 7.134 45.976 7.134H44.03V4.138H46.004ZM46.032 11.922H44.03V8.086H46.018C47.544 8.086 48.286 8.884 48.286 10.06C48.286 11.236 47.544 11.922 46.032 11.922ZM58.516 13H59.818L55.87 3.06H54.666L50.718 13H52.02L52.916 10.704H57.62L58.516 13ZM53.35 9.584L55.268 4.614L57.186 9.584H53.35ZM65.7106 13.14C66.9426 13.14 68.5106 12.734 69.5886 11.194L68.7066 10.55C67.8806 11.656 66.7186 11.978 65.7526 11.978C63.6106 11.978 61.8746 10.424 61.8746 8.03C61.8746 5.65 63.6106 4.082 65.7386 4.082C66.7046 4.082 67.8806 4.404 68.7066 5.51L69.5886 4.866C68.5106 3.326 66.9286 2.92 65.7106 2.92C62.9246 2.92 60.6426 4.992 60.6426 8.03C60.6426 11.068 62.9246 13.14 65.7106 13.14ZM77.8705 13H79.2425L74.9445 7.638L78.8925 3.06H77.4925L72.8585 8.464V3.06H71.6545V13H72.8585V10.06L74.2165 8.492L77.8705 13Z" fill="black"/>
<path d="M0.469669 7.46967C0.176777 7.76256 0.176777 8.23743 0.469669 8.53033L5.24264 13.3033C5.53553 13.5962 6.01041 13.5962 6.3033 13.3033C6.59619 13.0104 6.59619 12.5355 6.3033 12.2426L2.06066 8L6.3033 3.75736C6.59619 3.46446 6.59619 2.98959 6.3033 2.6967C6.01041 2.4038 5.53553 2.4038 5.24264 2.6967L0.469669 7.46967ZM27 7.25L1 7.25L1 8.75L27 8.75L27 7.25Z" fill="black"/>
</svg>
