<svg width="78" height="17" viewBox="0 0 78 17" fill="none" xmlns="http://www.w3.org/2000/svg">
<path d="M0.826 13H2.03V5.076H2.1L7.672 13H8.89V3.06H7.686V10.984H7.616L2.044 3.06H0.826V13ZM12.4507 11.88V8.562H15.9647V7.456H12.4507V4.18H16.5807V3.06H11.2467V13H16.7067V11.88H12.4507ZM26.6523 13L23.1523 7.904L26.4703 3.06H25.0563L22.4383 6.868L19.8203 3.06H18.4063L21.7383 7.904L18.2243 13H19.6383L22.4383 8.926L25.2383 13H26.6523ZM34.5694 3.06H28.1014V4.18H30.7334V13H31.9374V4.18H34.5694V3.06Z" fill="black"/>
<path d="M77.5303 8.53033C77.8232 8.23744 77.8232 7.76257 77.5303 7.46967L72.7574 2.6967C72.4645 2.40381 71.9896 2.40381 71.6967 2.6967C71.4038 2.9896 71.4038 3.46447 71.6967 3.75736L75.9393 8L71.6967 12.2426C71.4038 12.5355 71.4038 13.0104 71.6967 13.3033C71.9896 13.5962 72.4645 13.5962 72.7574 13.3033L77.5303 8.53033ZM51 8.75L77 8.75L77 7.25L51 7.25L51 8.75Z" fill="black"/>
</svg>
