<svg width="88" height="88" viewBox="0 0 88 88" fill="none" xmlns="http://www.w3.org/2000/svg">
<circle cx="44" cy="44" r="44" fill="black"/>
<path d="M53.024 55.9044C53.024 55.642 53.1232 55.3796 53.3232 55.1796L64.504 44.0004L53.3248 32.8212C52.9248 32.4212 52.9248 31.7732 53.3248 31.3732C53.7248 30.9732 54.3728 30.9732 54.7728 31.3732L66.6768 43.2772C67.0768 43.6772 67.0768 44.3252 66.6768 44.7252L54.7728 56.6292C54.3728 57.0292 53.7248 57.0292 53.3248 56.6292C53.1232 56.4292 53.024 56.1668 53.024 55.9044Z" fill="white"/>
<path d="M34.976 32.0956C34.976 32.358 34.8768 32.6204 34.6768 32.8204L23.496 43.9996L34.6752 55.1788C35.0752 55.5788 35.0752 56.2268 34.6752 56.6268C34.2752 57.0268 33.6272 57.0268 33.2272 56.6268L21.3232 44.7228C20.9232 44.3228 20.9232 43.6748 21.3232 43.2748L33.2272 31.3708C33.6272 30.9708 34.2752 30.9708 34.6752 31.3708C34.8768 31.5708 34.976 31.8332 34.976 32.0956Z" fill="white"/>
</svg>
