<svg width="22" height="22" viewBox="0 0 22 22" fill="none" xmlns="http://www.w3.org/2000/svg">
<path d="M9.58597 1.1C9.93996 0.746476 10.4136 0.538456 10.9134 0.516981C11.4132 0.495507 11.903 0.662139 12.286 0.984002L12.414 1.101L14.314 3H17C17.5044 3.00009 17.9901 3.19077 18.3599 3.53384C18.7297 3.8769 18.9561 4.34702 18.994 4.85L19 5V7.686L20.9 9.586C21.2538 9.94004 21.462 10.4139 21.4834 10.9139C21.5049 11.414 21.3381 11.9039 21.016 12.287L20.899 12.414L18.999 14.314V17C18.9991 17.5046 18.8086 17.9906 18.4655 18.3605C18.1224 18.7305 17.6521 18.9572 17.149 18.995L17 19H14.315L12.415 20.9C12.0609 21.2538 11.5871 21.462 11.087 21.4835C10.587 21.505 10.097 21.3382 9.71397 21.016L9.58697 20.9L7.68697 19H4.99997C4.49539 19.0002 4.0094 18.8096 3.63942 18.4665C3.26944 18.1234 3.04281 17.6532 3.00497 17.15L2.99997 17V14.314L1.09997 12.414C0.746165 12.06 0.537968 11.5861 0.516492 11.0861C0.495016 10.586 0.661821 10.0961 0.98397 9.713L1.09997 9.586L2.99997 7.686V5C3.00006 4.4956 3.19074 4.00986 3.53381 3.64009C3.87687 3.27032 4.34699 3.04383 4.84997 3.006L4.99997 3H7.68597L9.58597 1.1ZM11 2.516L9.09997 4.416C8.7678 4.74765 8.32956 4.95191 7.86197 4.993L7.68597 5H4.99997V7.686C5.00009 8.1559 4.83476 8.61083 4.53297 8.971L4.41397 9.101L2.51397 11.001L4.41397 12.9C4.74599 13.232 4.9506 13.6703 4.99197 14.138L4.99997 14.314V17H7.68597C8.15586 16.9999 8.6108 17.1652 8.97097 17.467L9.10097 17.586L11 19.486L12.9 17.586C13.232 17.254 13.6702 17.0494 14.138 17.008L14.314 17H17V14.314C16.9998 13.8441 17.1652 13.3892 17.467 13.029L17.586 12.899L19.486 11L17.586 9.1C17.254 8.76798 17.0493 8.32972 17.008 7.862L17 7.686V5H14.314C13.8441 5.00012 13.3891 4.83479 13.029 4.533L12.899 4.414L10.999 2.514L11 2.516ZM14.08 7.984C14.2599 7.80465 14.5014 7.70053 14.7554 7.69277C15.0093 7.68502 15.2567 7.77422 15.4472 7.94225C15.6378 8.11028 15.7573 8.34455 15.7814 8.59748C15.8055 8.8504 15.7324 9.10301 15.577 9.304L15.493 9.398L10.613 14.278C10.4224 14.4688 10.1685 14.5829 9.89933 14.5988C9.63018 14.6146 9.36458 14.5311 9.15297 14.364L9.05697 14.279L6.65297 11.875C6.47172 11.6955 6.36594 11.4534 6.35729 11.1985C6.34864 10.9435 6.43777 10.6948 6.60644 10.5034C6.7751 10.312 7.01055 10.1923 7.26459 10.1688C7.51863 10.1453 7.77205 10.2198 7.97297 10.377L8.06697 10.46L9.83497 12.228L14.079 7.984H14.08Z" fill="black"/>
</svg>
