<svg width="42" height="42" viewBox="0 0 42 42" fill="none" xmlns="http://www.w3.org/2000/svg">
<path d="M41.2188 40.4375H2.78125C2.34984 40.4375 2 40.7873 2 41.2188C2 41.6502 2.34984 42 2.78125 42H41.2188C41.6502 42 42 41.6502 42 41.2188C42 40.7873 41.6502 40.4375 41.2188 40.4375Z" fill="#B69B94" fill-opacity="0.4"/>
<path d="M2.78125 37H41.2188C41.6502 37 42 36.6503 42 36.2188C42 35.7873 41.6502 35.4375 41.2188 35.4375H30.0783C32.1922 34.5823 34.1672 33.3872 35.9355 31.8799V32.5233C35.9355 32.9548 36.2854 33.3046 36.7168 33.3046C37.1482 33.3046 37.498 32.9548 37.498 32.5233V30.0704C37.498 29.639 37.1482 29.2892 36.7168 29.2892H34.2639C33.8325 29.2892 33.4827 29.639 33.4827 30.0704C33.4827 30.5019 33.8325 30.8517 34.2639 30.8517H34.7308C31.158 33.8208 26.7034 35.4375 22 35.4375C17.2966 35.4375 12.842 33.8208 9.26922 30.8517H9.73609C10.1675 30.8517 10.5173 30.5019 10.5173 30.0704C10.5173 29.639 10.1675 29.2892 9.73609 29.2892H7.2832C6.8518 29.2892 6.50195 29.639 6.50195 30.0704V32.5233C6.50195 32.9548 6.8518 33.3046 7.2832 33.3046C7.71461 33.3046 8.06445 32.9548 8.06445 32.5233V31.8799C9.83281 33.3872 11.8077 34.5822 13.9217 35.4375H2.78125C2.34984 35.4375 2 35.7873 2 36.2188C2 36.6503 2.34984 37 2.78125 37Z" fill="#B69B94" fill-opacity="0.4"/>
<path d="M20.1761 28.4017C20.7862 28.5102 21.3993 28.5641 22.0099 28.5641C23.4474 28.5641 24.8698 28.2653 26.199 27.6773C26.5936 27.5027 26.772 27.0413 26.5974 26.6467C26.4229 26.2522 25.9617 26.0736 25.5669 26.2484C22.263 27.7099 18.3267 26.9752 15.7714 24.42C12.6029 21.2516 12.3164 16.2172 15.105 12.7097L22 4.03664L28.8952 12.7096C30.9386 15.2798 31.3851 18.743 30.0607 21.7475C29.8866 22.1423 30.0656 22.6035 30.4604 22.7775C30.855 22.9516 31.3163 22.7726 31.4904 22.3777C33.0497 18.8404 32.5239 14.7632 30.1183 11.7372L22.6116 2.29508C22.4634 2.10867 22.2382 2 22 2C21.7618 2 21.5367 2.10867 21.3885 2.29508L13.8818 11.7373C10.5986 15.867 10.936 21.7943 14.6665 25.5248C16.1761 27.0345 18.0814 28.0293 20.1761 28.4017Z" fill="#B69B94" fill-opacity="0.4"/>
<path d="M28.2289 24.4203C28.0837 24.5656 28 24.7664 28 24.9727C28 25.1781 28.0836 25.3797 28.2289 25.525C28.3742 25.6703 28.5758 25.7539 28.7812 25.7539C28.9867 25.7539 29.1883 25.6703 29.3336 25.525C29.4788 25.3797 29.5625 25.1781 29.5625 24.9727C29.5625 24.7672 29.4789 24.5656 29.3336 24.4203C29.1883 24.2742 28.9867 24.1914 28.7812 24.1914C28.5751 24.1914 28.3743 24.2742 28.2289 24.4203Z" fill="#B69B94" fill-opacity="0.4"/>
<path d="M39.2188 38.4375H0.78125C0.349844 38.4375 0 38.7873 0 39.2188C0 39.6502 0.349844 40 0.78125 40H39.2188C39.6502 40 40 39.6502 40 39.2188C40 38.7873 39.6502 38.4375 39.2188 38.4375Z" fill="#543F3A"/>
<path d="M0.78125 35H39.2188C39.6502 35 40 34.6503 40 34.2188C40 33.7873 39.6502 33.4375 39.2188 33.4375H28.0783C30.1922 32.5823 32.1672 31.3872 33.9355 29.8799V30.5233C33.9355 30.9548 34.2854 31.3046 34.7168 31.3046C35.1482 31.3046 35.498 30.9548 35.498 30.5233V28.0704C35.498 27.639 35.1482 27.2892 34.7168 27.2892H32.2639C31.8325 27.2892 31.4827 27.639 31.4827 28.0704C31.4827 28.5019 31.8325 28.8517 32.2639 28.8517H32.7308C29.158 31.8208 24.7034 33.4375 20 33.4375C15.2966 33.4375 10.842 31.8208 7.26922 28.8517H7.73609C8.1675 28.8517 8.51734 28.5019 8.51734 28.0704C8.51734 27.639 8.1675 27.2892 7.73609 27.2892H5.2832C4.8518 27.2892 4.50195 27.639 4.50195 28.0704V30.5233C4.50195 30.9548 4.8518 31.3046 5.2832 31.3046C5.71461 31.3046 6.06445 30.9548 6.06445 30.5233V29.8799C7.83281 31.3872 9.80773 32.5822 11.9217 33.4375H0.78125C0.349844 33.4375 0 33.7873 0 34.2188C0 34.6503 0.349844 35 0.78125 35Z" fill="#543F3A"/>
<path d="M18.1761 26.4017C18.7862 26.5102 19.3993 26.5641 20.0099 26.5641C21.4474 26.5641 22.8698 26.2653 24.199 25.6773C24.5936 25.5027 24.772 25.0413 24.5974 24.6467C24.4229 24.2522 23.9617 24.0736 23.5669 24.2484C20.263 25.7099 16.3267 24.9752 13.7714 22.42C10.6029 19.2516 10.3164 14.2172 13.105 10.7097L20 2.03664L26.8952 10.7096C28.9386 13.2798 29.3851 16.743 28.0607 19.7475C27.8866 20.1423 28.0656 20.6035 28.4604 20.7775C28.855 20.9516 29.3163 20.7726 29.4904 20.3777C31.0497 16.8404 30.5239 12.7632 28.1183 9.73719L20.6116 0.295078C20.4634 0.108672 20.2382 0 20 0C19.7618 0 19.5367 0.108672 19.3885 0.295078L11.8818 9.73727C8.59863 13.867 8.93598 19.7943 12.6665 23.5248C14.1761 25.0345 16.0814 26.0293 18.1761 26.4017Z" fill="#543F3A"/>
<path d="M26.2289 22.4203C26.0837 22.5656 26 22.7664 26 22.9727C26 23.1781 26.0836 23.3797 26.2289 23.525C26.3742 23.6703 26.5758 23.7539 26.7812 23.7539C26.9867 23.7539 27.1883 23.6703 27.3336 23.525C27.4788 23.3797 27.5625 23.1781 27.5625 22.9727C27.5625 22.7672 27.4789 22.5656 27.3336 22.4203C27.1883 22.2742 26.9867 22.1914 26.7812 22.1914C26.5751 22.1914 26.3743 22.2742 26.2289 22.4203Z" fill="#543F3A"/>
</svg>
