<svg width="50" height="50" viewBox="0 0 50 50" fill="none" xmlns="http://www.w3.org/2000/svg">
<path d="M24.7766 48.4375C23.0539 48.4375 21.025 47.1836 20.2539 45.6422L19.7016 44.5359C19.0875 43.3094 17.7055 42.4852 16.2625 42.4852C15.9305 42.4852 15.6086 42.5305 15.3047 42.6195L13.7937 43.0617C13.4148 43.1727 12.993 43.2289 12.5391 43.2289C11.0703 43.2289 9.48125 42.6266 8.58516 41.7305L8.26875 41.4148C7.05078 40.1969 6.45391 37.8602 6.93828 36.2063L7.38047 34.6945C7.86484 33.0414 7.00547 31.0688 5.46328 30.2984L4.35781 29.7453C2.81641 28.9758 1.5625 26.9469 1.5625 25.2242V24.7781C1.5625 23.0555 2.81563 21.0266 4.35703 20.2547L5.46406 19.7016C7.00547 18.9312 7.86484 16.9586 7.38047 15.3047L6.93828 13.7953C6.45391 12.1414 7.05156 9.80469 8.26953 8.58672L8.58516 8.27109C9.48125 7.375 11.0711 6.77266 12.5398 6.77266C12.993 6.77266 13.4148 6.82891 13.7937 6.93984L15.3047 7.38203C15.6102 7.47109 15.932 7.51641 16.2617 7.51641C17.7063 7.51641 19.0875 6.69219 19.7016 5.46562L20.2539 4.35938C21.025 2.81641 23.0539 1.5625 24.7766 1.5625H25.2234C26.9461 1.5625 28.975 2.81641 29.7461 4.35781L30.2984 5.46406C30.9125 6.69141 32.2953 7.51562 33.7391 7.51562C34.0711 7.51562 34.393 7.47031 34.6961 7.38125L36.2078 6.93906C36.5859 6.82812 37.0078 6.77188 37.4609 6.77188C38.9297 6.77188 40.5187 7.37422 41.4164 8.27109L41.732 8.58594C42.9508 9.80469 43.5477 12.1414 43.0625 13.7945L42.6203 15.3047C42.1352 16.9578 42.9945 18.9305 44.5359 19.7016L45.643 20.2547C47.1844 21.0266 48.4375 23.0555 48.4375 24.7781V25.2234C48.4375 26.9469 47.1836 28.975 45.6422 29.7461L44.5367 30.2992C42.9945 31.0703 42.1352 33.0422 42.6195 34.6961L43.0617 36.2078C43.5461 37.8617 42.9484 40.1984 41.7305 41.4164L41.4148 41.7328C40.5188 42.6289 38.9289 43.2305 37.4609 43.2305C37.0078 43.2305 36.5859 43.1742 36.2063 43.0625L34.6953 42.6203C34.3922 42.5312 34.0703 42.4859 33.7383 42.4859C32.2938 42.4859 30.9117 43.3102 30.2984 44.5367L29.7461 45.643C28.975 47.1836 26.9461 48.4375 25.2234 48.4375H24.7766Z" fill="#66BB6A"/>
<path d="M25 40.625C16.3844 40.625 9.375 33.6156 9.375 25C9.375 16.3844 16.3844 9.375 25 9.375C33.6156 9.375 40.625 16.3844 40.625 25C40.625 33.6156 33.6156 40.625 25 40.625Z" fill="#FFCA28"/>
<path d="M45.9922 19.5562L44.8852 19.0031C43.6867 18.4039 42.993 16.8109 43.3695 15.525L43.8117 14.0148C44.3781 12.0844 43.7062 9.45703 42.2836 8.03359L41.9688 7.71875C40.9195 6.66875 39.15 5.99063 37.4609 5.99063C36.9336 5.99063 36.4383 6.05703 35.9883 6.18906L34.4758 6.63125C34.243 6.69922 33.9953 6.73359 33.7391 6.73359C32.6016 6.73359 31.4742 6.06719 30.9969 5.11406L30.4445 4.00781C29.5398 2.19844 27.2461 0.78125 25.2234 0.78125H24.7773C22.7539 0.78125 20.4609 2.19844 19.5555 4.00859L19.0023 5.11484C18.5258 6.06797 17.3984 6.73438 16.2609 6.73438C16.0047 6.73438 15.757 6.7 15.5242 6.63203L14.0125 6.18984C13.5625 6.05781 13.0664 5.99141 12.5391 5.99141C10.8508 5.99141 9.08203 6.66953 8.03203 7.71953L7.71719 8.03516C6.29453 9.45781 5.62266 12.0852 6.18828 14.0164L6.63047 15.5258C7.00703 16.8117 6.3125 18.4055 5.11406 19.0047L4.00781 19.5562C2.19844 20.4609 0.78125 22.7539 0.78125 24.7773V25.2234C0.78125 27.2461 2.19844 29.5398 4.00859 30.4445L5.11484 30.9977C6.31328 31.5969 7.00781 33.1898 6.63125 34.4758L6.18906 35.9875C5.62344 37.9188 6.29531 40.5453 7.71797 41.968L8.03359 42.2836C9.08281 43.3328 10.8508 44.0109 12.5391 44.0109C13.0672 44.0109 13.5633 43.9445 14.0133 43.8125L15.5258 43.3695C15.7586 43.3016 16.007 43.2672 16.2633 43.2672C17.4008 43.2672 18.5273 43.9328 19.0039 44.8852L19.557 45.9922C20.4617 47.8016 22.7555 49.2188 24.7789 49.2188H25.225C27.2484 49.2188 29.5414 47.8016 30.4469 45.9914L31 44.8852C31.4766 43.932 32.6039 43.2664 33.7406 43.2664C33.9969 43.2664 34.2453 43.3008 34.4781 43.3688L35.9891 43.8109C36.4398 43.943 36.9359 44.0102 37.4641 44.0102C39.1523 44.0102 40.9211 43.332 41.9703 42.2828L42.2852 41.968C43.7078 40.5453 44.3797 37.918 43.8148 35.9875L43.3719 34.4758C42.9953 33.1898 43.6898 31.5969 44.8883 30.9977L45.9953 30.4445C47.8047 29.5398 49.2219 27.2461 49.2219 25.2234V24.7781C49.2188 22.7555 47.8016 20.4617 45.9922 19.5562ZM47.6562 25.2242C47.6562 26.6562 46.5742 28.407 45.2938 29.0477L44.1867 29.6008C42.3234 30.532 41.2844 32.9164 41.8695 34.9156L42.3125 36.4273C42.718 37.8125 42.1984 39.8445 41.1781 40.8648L40.8633 41.1797C40.1039 41.9391 38.7367 42.4492 37.4617 42.4492C37.0828 42.4492 36.7344 42.4031 36.4266 42.3133L34.9156 41.8711C34.5398 41.7609 34.1437 41.7055 33.7391 41.7055C32.0063 41.7055 30.343 42.7031 29.6008 44.1883L29.0477 45.2945C28.4062 46.5742 26.6555 47.6562 25.2234 47.6562H24.7773C23.3453 47.6562 21.5938 46.5742 20.9531 45.2938L20.4 44.1867C19.6578 42.7023 17.9945 41.7047 16.2617 41.7047C15.8563 41.7047 15.4609 41.7602 15.0852 41.8703L13.5727 42.3133C13.2648 42.4031 12.9164 42.4492 12.5375 42.4492C11.2625 42.4492 9.89609 41.9391 9.13672 41.1797L8.82109 40.8641C7.80078 39.8438 7.28203 37.8117 7.6875 36.4266L8.12969 34.9148C8.71563 32.9156 7.67578 30.532 5.8125 29.6L4.70625 29.0469C3.42578 28.407 2.34375 26.6562 2.34375 25.2242V24.7781C2.34375 23.3461 3.42578 21.5945 4.70703 20.9539L5.81328 20.4008C7.67656 19.4695 8.71562 17.0844 8.13047 15.0852L7.6875 13.575C7.28203 12.1898 7.80156 10.1578 8.82187 9.1375L9.13672 8.82187C9.89687 8.0625 11.2633 7.55234 12.5383 7.55234C12.9172 7.55234 13.2656 7.59766 13.5727 7.6875L15.0844 8.12969C15.4594 8.23984 15.8555 8.29531 16.2602 8.29531C17.993 8.29531 19.6562 7.29766 20.3992 5.81172L20.9523 4.70547C21.5938 3.42578 23.3445 2.34375 24.7766 2.34375H25.2227C26.6547 2.34375 28.4062 3.42578 29.0469 4.70625L29.6 5.81328C30.343 7.29844 32.007 8.29688 33.7398 8.29688C34.1445 8.29688 34.5398 8.24141 34.9148 8.13203L36.4273 7.68984C36.7352 7.6 37.0828 7.55391 37.4617 7.55391C38.7367 7.55391 40.1047 8.06484 40.8648 8.825L41.1797 9.13984C42.2 10.1602 42.7188 12.1922 42.3133 13.5766L41.8711 15.0867C41.2852 17.0859 42.3242 19.4695 44.1867 20.4023L45.2938 20.9555C46.5742 21.5953 47.6562 23.3461 47.6562 24.7781V25.2242ZM25 8.59375C15.9531 8.59375 8.59375 15.9531 8.59375 25C8.59375 34.0469 15.9531 41.4062 25 41.4062C34.0469 41.4062 41.4062 34.0469 41.4062 25C41.4062 15.9531 34.0469 8.59375 25 8.59375ZM25 39.8438C16.8148 39.8438 10.1562 33.1852 10.1562 25C10.1562 16.8148 16.8148 10.1562 25 10.1562C33.1852 10.1562 39.8438 16.8148 39.8438 25C39.8438 33.1852 33.1852 39.8438 25 39.8438ZM33.7555 18.9789C34.0609 19.2844 34.0609 19.7781 33.7555 20.0836L22.818 31.0211C22.6656 31.1734 22.4656 31.25 22.2656 31.25C22.0656 31.25 21.8656 31.1734 21.7133 31.0211L16.2445 25.5523C15.9391 25.2469 15.9391 24.7531 16.2445 24.4477C16.55 24.1422 17.0438 24.1422 17.3492 24.4477L22.2656 29.3641L32.6508 18.9789C32.9562 18.6734 33.45 18.6734 33.7555 18.9789Z" fill="#212121"/>
</svg>
