<svg width="38" height="38" viewBox="0 0 38 38" fill="none" xmlns="http://www.w3.org/2000/svg">
<path d="M30.7842 18.0475H19.6167V11.3441C19.6201 11.239 19.6024 11.1342 19.5645 11.036C19.5266 10.9378 19.4694 10.8482 19.3962 10.7726C19.323 10.697 19.2353 10.6369 19.1384 10.5958C19.0415 10.5547 18.9374 10.5336 18.8321 10.5336C18.7269 10.5336 18.6227 10.5547 18.5258 10.5958C18.4289 10.6369 18.3413 10.697 18.2681 10.7726C18.1949 10.8482 18.1376 10.9378 18.0997 11.036C18.0619 11.1342 18.0441 11.239 18.0475 11.3441V18.8333C18.0475 18.9364 18.0678 19.0384 18.1073 19.1336C18.1468 19.2288 18.2046 19.3153 18.2775 19.3881C18.3504 19.4609 18.437 19.5187 18.5322 19.558C18.6274 19.5974 18.7295 19.6176 18.8325 19.6175H30.7842C30.9879 19.6108 31.181 19.5253 31.3227 19.3789C31.4644 19.2324 31.5436 19.0367 31.5436 18.8329C31.5436 18.6291 31.4644 18.4333 31.3227 18.2869C31.181 18.1405 30.9879 18.0549 30.7842 18.0483V18.0475Z" fill="#543F3A"/>
<path d="M36.88 18.0475H34.5525C34.3546 14.1503 32.7175 10.4652 29.9582 7.70593C27.199 4.94665 23.5139 3.30954 19.6167 3.11167V0.785C19.6168 0.682022 19.5966 0.58003 19.5573 0.484849C19.518 0.389668 19.4603 0.30316 19.3876 0.230266C19.3148 0.157372 19.2285 0.0995191 19.1334 0.0600099C19.0383 0.0205008 18.9363 0.000109377 18.8333 0C15.1085 0 11.4672 1.10456 8.3701 3.17399C5.27298 5.24342 2.85906 8.18479 1.43361 11.6261C0.00816017 15.0675 -0.364803 18.8542 0.361886 22.5075C1.08857 26.1608 2.88228 29.5166 5.51616 32.1505C8.15005 34.7844 11.5058 36.5781 15.1591 37.3048C18.8125 38.0315 22.5992 37.6585 26.0405 36.2331C29.4819 34.8076 32.4233 32.3937 34.4927 29.2966C36.5621 26.1994 37.6667 22.5582 37.6667 18.8333C37.6669 18.73 37.6467 18.6277 37.6072 18.5322C37.5678 18.4367 37.5098 18.3499 37.4367 18.2769C37.3636 18.2039 37.2768 18.146 37.1813 18.1066C37.0857 18.0673 36.9833 18.0472 36.88 18.0475ZM19.6167 36.075V33.8075C19.61 33.6038 19.5245 33.4107 19.3781 33.269C19.2316 33.1273 19.0359 33.0481 18.8321 33.0481C18.6283 33.0481 18.4325 33.1273 18.2861 33.269C18.1397 33.4107 18.0541 33.6038 18.0475 33.8075V36.075C13.7471 35.8744 9.67646 34.076 6.63233 31.0319C3.5882 27.9877 1.7898 23.917 1.58918 19.6167H3.85667C3.96186 19.6201 4.06666 19.6023 4.16484 19.5645C4.26303 19.5266 4.35259 19.4693 4.42821 19.3961C4.50383 19.3229 4.56396 19.2353 4.60502 19.1384C4.64609 19.0415 4.66725 18.9373 4.66725 18.8321C4.66725 18.7268 4.64609 18.6227 4.60502 18.5258C4.56396 18.4289 4.50383 18.3412 4.42821 18.268C4.35259 18.1948 4.26303 18.1376 4.16484 18.0997C4.06666 18.0618 3.96186 18.0441 3.85667 18.0475H1.58918C1.7898 13.7471 3.5882 9.67645 6.63233 6.63232C9.67646 3.58819 13.7471 1.78979 18.0475 1.58917V3.85667C18.0475 4.06486 18.1302 4.26453 18.2774 4.41175C18.4246 4.55896 18.6243 4.64167 18.8325 4.64167C22.595 4.64586 26.2022 6.14242 28.8626 8.80299C31.523 11.4636 33.0194 15.0708 33.0233 18.8333C33.0233 18.9363 33.0436 19.0383 33.083 19.1334C33.1224 19.2286 33.1802 19.315 33.253 19.3878C33.3258 19.4606 33.4123 19.5184 33.5074 19.5578C33.6026 19.5972 33.7045 19.6175 33.8075 19.6175H36.075C35.8742 23.9177 34.0757 27.9882 31.0316 31.0322C27.9875 34.0761 23.9169 35.8744 19.6167 36.075Z" fill="#543F3A"/>
</svg>
