<svg width="50" height="50" viewBox="0 0 50 50" fill="none" xmlns="http://www.w3.org/2000/svg">
<path d="M45.822 8.3333H40.322C39.6553 8.3333 39.1553 7.83331 39.1553 7.16662V4.50006C39.1553 3.83337 39.6553 3.33337 40.322 3.33337H45.822V8.3333Z" fill="#FFDD09"/>
<path d="M45.8223 8.3333H48.3222V3.33337H45.8223V8.3333Z" fill="#FD9808"/>
<path d="M32.4886 9.16667C31.9886 9.16667 31.6553 8.83337 31.6553 8.33338V3.33335C31.6553 2.83336 31.9886 2.50006 32.4886 2.50006C32.9886 2.50006 33.3219 2.83336 33.3219 3.33335V8.33338C33.3219 8.83327 32.9886 9.16667 32.4886 9.16667Z" fill="#FFDD09"/>
<path d="M34.9886 8.3333C34.4886 8.3333 34.1553 8.00001 34.1553 7.50002V4.16666C34.1553 3.66667 34.4886 3.33337 34.9886 3.33337C35.4886 3.33337 35.8219 3.66667 35.8219 4.16666V7.50002C35.822 8.00001 35.4886 8.3333 34.9886 8.3333Z" fill="#FFDD09"/>
<path d="M37.4886 8.3333C36.9886 8.3333 36.6553 8.00001 36.6553 7.50002V4.16666C36.6553 3.66667 36.9886 3.33337 37.4886 3.33337C37.9886 3.33337 38.3219 3.66667 38.3219 4.16666V7.50002C38.3219 8.00001 37.9886 8.3333 37.4886 8.3333Z" fill="#FFDD09"/>
<path d="M29.9886 9.99997C29.4886 9.99997 29.1553 9.66668 29.1553 9.16668V2.49998C29.1553 1.99998 29.4886 1.66669 29.9886 1.66669C30.4886 1.66669 30.8219 1.99998 30.8219 2.49998V9.16668C30.8219 9.66668 30.4886 9.99997 29.9886 9.99997Z" fill="#FFDD09"/>
<path d="M27.4886 10.8333C26.9886 10.8333 26.6553 10.5 26.6553 10V1.66666C26.6553 1.16667 26.9886 0.833374 27.4886 0.833374C27.9886 0.833374 28.3219 1.16667 28.3219 1.66666V9.99995C28.322 10.4999 27.9886 10.8333 27.4886 10.8333Z" fill="#FFDD09"/>
<path d="M24.9886 11.6666C24.4886 11.6666 24.1553 11.3333 24.1553 10.8333V0.833289C24.1553 0.333296 24.4886 0 24.9886 0C25.4886 0 25.8219 0.333296 25.8219 0.833289V10.8332C25.8219 11.3333 25.4886 11.6666 24.9886 11.6666Z" fill="#FFDD09"/>
<path d="M22.4886 11.6666C21.9886 11.6666 21.6553 11.3333 21.6553 10.8333V0.833289C21.6553 0.333296 21.9886 0 22.4886 0C22.9886 0 23.3219 0.333296 23.3219 0.833289V10.8332C23.3219 11.3333 22.9886 11.6666 22.4886 11.6666Z" fill="#FFDD09"/>
<path d="M19.9886 11.6666C19.4886 11.6666 19.1553 11.3333 19.1553 10.8333V0.833289C19.1553 0.333296 19.4886 0 19.9886 0C20.4886 0 20.8219 0.333296 20.8219 0.833289V10.8332C20.8219 11.3333 20.4886 11.6666 19.9886 11.6666Z" fill="#FFDD09"/>
<path d="M17.4886 11.6666C16.9886 11.6666 16.6553 11.3333 16.6553 10.8333V0.833289C16.6553 0.333296 16.9886 0 17.4886 0C17.9886 0 18.3219 0.333296 18.3219 0.833289V10.8332C18.3219 11.3333 17.9886 11.6666 17.4886 11.6666Z" fill="#FFDD09"/>
<path d="M14.9886 10.8333C14.4886 10.8333 14.1553 10.5 14.1553 10V1.66666C14.1553 1.16667 14.4886 0.833374 14.9886 0.833374C15.4886 0.833374 15.8219 1.16667 15.8219 1.66666V9.99995C15.8219 10.4999 15.4886 10.8333 14.9886 10.8333Z" fill="#FFDD09"/>
<path d="M12.4886 9.99997C11.9886 9.99997 11.6553 9.66668 11.6553 9.16668V2.49998C11.6553 1.99998 11.9886 1.66669 12.4886 1.66669C12.9886 1.66669 13.3219 1.99998 13.3219 2.49998V9.16668C13.3219 9.66668 12.9886 9.99997 12.4886 9.99997Z" fill="#FFDD09"/>
<path d="M9.98856 9.16667C9.48857 9.16667 9.15527 8.83337 9.15527 8.33338V3.33335C9.15527 2.83336 9.48857 2.50006 9.98856 2.50006C10.4886 2.50006 10.8219 2.83336 10.8219 3.33335V8.33338C10.8219 8.83327 10.4886 9.16667 9.98856 9.16667Z" fill="#FFDD09"/>
<path d="M7.48856 8.3333C6.98857 8.3333 6.65527 8.00001 6.65527 7.50002V4.16666C6.65527 3.66667 6.98857 3.33337 7.48856 3.33337C7.98855 3.33337 8.32185 3.66667 8.32185 4.16666V7.50002C8.32185 8.00001 7.98855 8.3333 7.48856 8.3333Z" fill="#FFDD09"/>
<path d="M4.98878 45C4.82208 45 4.57209 44.9167 4.40549 44.75C4.07219 44.4167 4.07219 43.9167 4.40549 43.5833C4.40549 43.5833 4.40549 43.5833 4.48879 43.5C8.73883 38.9166 1.90542 28.9167 1.82212 28.75C1.57213 28.4167 1.65543 27.9167 1.98882 27.6667C2.40552 27.4167 2.90551 27.5 3.15551 27.9167C3.4055 28.25 8.15554 35.25 7.40555 40.8333C10.0722 38.5833 13.9889 35.9167 17.4889 35.9167H19.7389C22.5722 35.9167 25.3222 36.3334 28.0722 37.1667C30.1555 37.75 32.9055 38.4166 38.3221 38.4166C38.8221 38.4166 39.1554 38.7499 39.1554 39.2499C39.1554 39.7499 38.8221 40.0832 38.3221 40.0832C32.6555 40.0832 29.8221 39.4165 27.5722 38.7498C24.9888 37.9999 22.4055 37.5832 19.7389 37.5832H17.4889C12.7389 37.5832 6.32226 44.0832 5.65557 44.7499C5.65557 44.7499 5.65557 44.7499 5.57227 44.8332C5.40547 44.9167 5.23878 45 4.98878 45Z" fill="#FFDD09"/>
<path d="M7.48854 49.1666C7.23854 49.1666 7.07184 49.0833 6.90525 48.9166C6.57195 48.5833 6.57195 48.0833 6.90525 47.75C7.23854 47.5 14.3219 40.8333 19.9886 40.8333H22.2385C25.0719 40.8333 28.3218 41.7499 31.0719 42.4999C31.4886 42.6666 31.7386 43.0832 31.6552 43.4999C31.4885 43.9166 31.0719 44.1666 30.6552 44.0832C27.9886 43.3332 24.9052 42.4165 22.3219 42.4165H19.9886C14.9885 42.4165 8.15523 48.8332 8.07193 48.8332C7.90513 49.0833 7.65514 49.1666 7.48854 49.1666Z" fill="#FFDD09"/>
<path d="M9.15535 41.3333C8.98865 41.3333 8.73866 41.25 8.57206 41.0833C8.23876 40.75 8.23876 40.2501 8.57206 39.9167C11.9887 36.3333 8.40536 26.4166 6.73868 22.9167C6.57199 22.5 6.73869 22 7.15538 21.8334C7.57207 21.6667 8.07207 21.8334 8.23866 22.2501C8.48866 22.8334 14.6554 36.0001 9.73864 41.1667C9.57195 41.2499 9.40535 41.3333 9.15535 41.3333Z" fill="#FFDD09"/>
<path d="M12.4887 39.0832C12.322 39.0832 12.1554 38.9999 11.9887 38.9165C11.6554 38.6665 11.572 38.0832 11.822 37.7498C17.072 31.1665 11.7387 19.6665 11.7387 19.5832C11.572 19.1665 11.7387 18.6665 12.1554 18.4999C12.5721 18.3332 13.0721 18.4999 13.2387 18.9166C13.4887 19.4166 19.072 31.4999 13.1554 38.8332C12.9887 38.9999 12.7387 39.0832 12.4887 39.0832Z" fill="#FFDD09"/>
<path d="M16.6555 37.5C16.4055 37.5 16.2388 37.4167 16.0722 37.25C15.7389 36.9167 15.7389 36.4167 16.0722 36.0833C21.9889 30.1667 17.5722 16.25 17.5722 16.0833C17.4055 15.6666 17.6555 15.1666 18.0722 15C18.4889 14.8333 18.9889 15.0833 19.1555 15.5C19.3222 16.0833 23.9055 30.5833 17.3221 37.1666C17.0721 37.4167 16.9055 37.5 16.6555 37.5Z" fill="#FFDD09"/>
<path d="M19.9889 37.5C19.6556 37.5 19.3222 37.25 19.1556 36.9167C19.0723 36.5 19.3223 36 19.7389 35.9167C28.0722 33.5833 25.8222 13.6667 25.8222 13.4167C25.7389 13 26.0722 12.5834 26.5722 12.5C27.0722 12.4166 27.4055 12.75 27.4889 13.25C27.5722 14.1667 29.9056 34.8333 20.2389 37.5C20.1556 37.5 20.0723 37.5 19.9889 37.5Z" fill="#FFDD09"/>
<path d="M24.9886 38C24.4886 38 24.1553 37.6667 24.1553 37.1667C24.1553 36.6667 24.4886 36.3334 24.9886 36.3334C33.7385 36.3334 34.1552 15.2501 34.1552 15.0001C34.1552 14.5001 34.4885 14.1668 34.9885 14.1668C35.4885 14.1668 35.8218 14.5835 35.8218 15.0001C35.8219 16 35.4052 38 24.9886 38Z" fill="#FFDD09"/>
<path d="M29.9886 39.1666C29.4886 39.1666 29.1553 38.8333 29.1553 38.3334C29.1553 37.8334 29.4886 37.5001 29.9886 37.5001C38.3218 37.5001 40.8219 19.2501 40.8219 19.0834C40.9052 18.6667 41.3219 18.3334 41.7386 18.3334C42.1553 18.4167 42.4886 18.8334 42.4886 19.2501C42.4052 20.0833 39.7385 39.1666 29.9886 39.1666Z" fill="#FFDD09"/>
<path d="M37.4886 40C36.9886 40 36.6553 39.6667 36.6553 39.1667C36.6553 38.6667 36.9886 38.3334 37.4886 38.3334C40.9885 38.3334 43.5719 36.5834 45.1553 33.0001C46.4052 30.2501 46.6552 27.4167 46.6552 27.4167C46.6552 26.9167 47.0719 26.5834 47.5719 26.6667C48.0719 26.6667 48.4052 27.0834 48.3219 27.5834C48.3218 27.6666 47.4052 40 37.4886 40Z" fill="#FFDD09"/>
<path d="M4.15577 45.8333C3.98907 45.8333 3.73908 45.75 3.57248 45.5833C3.23918 45.25 3.23918 44.75 3.57248 44.4166C3.57248 44.4166 3.57248 44.4166 3.65578 44.3333C7.90572 39.75 1.07242 29.75 0.989116 29.5833C0.73912 29.25 0.822419 28.75 1.15581 28.5C1.57251 28.25 2.0725 28.3333 2.3225 28.75C2.57249 29.0833 7.32253 36.0833 6.57254 41.6666C9.2392 39.4167 13.1558 36.75 16.6559 36.75H18.9059C21.7392 36.75 24.4892 37.1667 27.2391 38C29.3225 38.5833 32.0725 39.25 37.4891 39.25C37.9891 39.25 38.3224 39.5833 38.3224 40.0832C38.3224 40.5832 37.9891 40.9165 37.4891 40.9165C31.8225 40.9165 28.9891 40.2498 26.7392 39.5832C24.1558 38.8332 21.5725 38.4165 18.9059 38.4165H16.6559C11.9059 38.4165 5.48925 44.9165 4.82256 45.5832C4.82256 45.5832 4.82256 45.5832 4.73926 45.6665C4.57247 45.75 4.40577 45.8333 4.15577 45.8333Z" fill="black"/>
<path d="M6.65553 50C6.40553 50 6.23884 49.9167 6.07224 49.75C5.73894 49.4167 5.73894 48.9167 6.07224 48.5833C6.40553 48.3333 13.4889 41.6666 19.1556 41.6666H21.4055C24.2389 41.6666 27.4888 42.5833 30.2388 43.3333C30.6555 43.5 30.9055 43.9166 30.8221 44.3333C30.6554 44.75 30.2388 45 29.8221 44.9166C27.1554 44.1666 24.0721 43.2499 21.4888 43.2499H19.1555C14.1554 43.2499 7.32212 49.6665 7.23882 49.6665C7.07222 49.9166 6.82223 50 6.65553 50Z" fill="black"/>
<path d="M8.32234 42.1666C8.15565 42.1666 7.90565 42.0833 7.73905 41.9166C7.40576 41.5833 7.40576 41.0833 7.73905 40.7499C11.1557 37.1666 7.57235 27.2499 5.90568 23.7499C5.73898 23.3333 5.90568 22.8333 6.32237 22.6667C6.73906 22.5 7.23906 22.6667 7.40566 23.0834C7.65565 23.6666 13.8224 36.8334 8.90564 42C8.73904 42.0833 8.57234 42.1666 8.32234 42.1666Z" fill="black"/>
<path d="M11.6557 39.9167C11.489 39.9167 11.3224 39.8334 11.1557 39.75C10.8224 39.5 10.739 38.9167 10.989 38.5833C16.239 32 10.9057 20.4999 10.9057 20.4166C10.739 19.9999 10.9057 19.4999 11.3224 19.3333C11.7391 19.1667 12.2391 19.3334 12.4057 19.75C12.6557 20.25 18.239 32.3334 12.3224 39.6667C12.1557 39.8334 11.9057 39.9167 11.6557 39.9167Z" fill="black"/>
<path d="M15.8225 38.3333C15.5725 38.3333 15.4058 38.25 15.2392 38.0833C14.9059 37.75 14.9059 37.25 15.2392 36.9166C21.1558 31 16.7392 17.0833 16.7392 16.9166C16.5725 16.4999 16.8225 15.9999 17.2392 15.8333C17.6559 15.6666 18.1559 15.9166 18.3225 16.3333C18.4892 16.9166 23.0725 31.4166 16.4891 37.9999C16.2392 38.25 16.0725 38.3333 15.8225 38.3333Z" fill="black"/>
<path d="M19.1559 38.3333C18.8226 38.3333 18.4892 38.0833 18.3226 37.75C18.2393 37.3333 18.4893 36.8333 18.9059 36.75C27.2392 34.4166 24.9892 14.5 24.9892 14.25C24.9059 13.8333 25.2392 13.4167 25.7392 13.3333C26.1559 13.25 26.5725 13.5833 26.6559 14.0833C26.7392 15 29.0725 35.6666 19.4059 38.3333C19.3226 38.3333 19.2392 38.3333 19.1559 38.3333Z" fill="black"/>
<path d="M24.1556 38.8332C23.6556 38.8332 23.3223 38.4999 23.3223 37.9999C23.3223 37.4999 23.6556 37.1667 24.1556 37.1667C32.9055 37.1667 33.3222 16.0833 33.3222 15.8334C33.3222 15.3334 33.7389 15.0001 34.1555 15.0001C34.6555 15.0001 34.9888 15.4168 34.9888 15.8334C34.9888 16.8333 34.5722 38.8332 24.1556 38.8332Z" fill="black"/>
<path d="M29.1556 40C28.6556 40 28.3223 39.6667 28.3223 39.1667C28.3223 38.6667 28.6556 38.3334 29.1556 38.3334C37.4888 38.3334 39.9889 20.0834 39.9889 19.9167C40.0722 19.5 40.4889 19.1667 40.9056 19.1667C41.3223 19.25 41.6556 19.6667 41.6556 20.0834C41.5722 20.9166 38.9055 40 29.1556 40Z" fill="black"/>
<path d="M36.6556 40.8333C36.1556 40.8333 35.8223 40.5 35.8223 40C35.8223 39.5001 36.1556 39.1668 36.6556 39.1668C40.1555 39.1668 42.7389 37.4168 44.3222 33.8334C45.5722 31.0835 45.8222 28.2501 45.8222 28.2501C45.8222 27.7501 46.2389 27.4168 46.7389 27.5001C47.2389 27.5001 47.5722 27.9168 47.4889 28.4168C47.4889 28.5 46.5722 40.8333 36.6556 40.8333Z" fill="black"/>
<path d="M39.1558 6.6667H5.82255C5.32255 6.6667 4.98926 6.3334 4.98926 5.83341C4.98926 5.33342 5.32255 5.00012 5.82255 5.00012H39.1559C39.6559 5.00012 39.9892 5.33342 39.9892 5.83341C39.9892 6.3334 39.6559 6.6667 39.1558 6.6667Z" fill="black"/>
<path d="M49.1555 9.16667H40.3222C39.239 9.16667 38.3223 8.24998 38.3223 7.1667V4.50003C38.3223 3.41675 39.239 2.50006 40.3222 2.50006H49.1555V9.16667ZM40.3221 4.16664C40.1554 4.16664 39.9888 4.33334 39.9888 4.49993V7.1666C39.9888 7.33329 40.1555 7.49989 40.3221 7.49989H47.4888V4.16664H40.3221Z" fill="black"/>
<path d="M31.6556 9.16667C31.1556 9.16667 30.8223 8.83337 30.8223 8.33338V3.33335C30.8223 2.83336 31.1556 2.50006 31.6556 2.50006C32.1555 2.50006 32.4888 2.83336 32.4888 3.33335V8.33338C32.4888 8.83327 32.1555 9.16667 31.6556 9.16667Z" fill="black"/>
<path d="M34.1556 8.3333C33.6556 8.3333 33.3223 8.00001 33.3223 7.50002V4.16666C33.3223 3.66667 33.6556 3.33337 34.1556 3.33337C34.6555 3.33337 34.9888 3.66667 34.9888 4.16666V7.50002C34.9888 8.00001 34.6555 8.3333 34.1556 8.3333Z" fill="black"/>
<path d="M36.6556 8.3333C36.1556 8.3333 35.8223 8.00001 35.8223 7.50002V4.16666C35.8223 3.66667 36.1556 3.33337 36.6556 3.33337C37.1555 3.33337 37.4888 3.66667 37.4888 4.16666V7.50002C37.4889 8.00001 37.1555 8.3333 36.6556 8.3333Z" fill="black"/>
<path d="M29.1556 9.99997C28.6556 9.99997 28.3223 9.66668 28.3223 9.16668V2.49998C28.3223 1.99998 28.6556 1.66669 29.1556 1.66669C29.6555 1.66669 29.9888 1.99998 29.9888 2.49998V9.16668C29.9889 9.66668 29.6555 9.99997 29.1556 9.99997Z" fill="black"/>
<path d="M26.6556 10.8333C26.1556 10.8333 25.8223 10.5 25.8223 10V1.66666C25.8223 1.16667 26.1556 0.833374 26.6556 0.833374C27.1555 0.833374 27.4888 1.16667 27.4888 1.66666V9.99995C27.4888 10.4999 27.1555 10.8333 26.6556 10.8333Z" fill="black"/>
<path d="M24.1556 11.6666C23.6556 11.6666 23.3223 11.3333 23.3223 10.8333V0.833289C23.3223 0.333296 23.6556 0 24.1556 0C24.6555 0 24.9888 0.333296 24.9888 0.833289V10.8332C24.9888 11.3333 24.6555 11.6666 24.1556 11.6666Z" fill="black"/>
<path d="M21.6556 11.6666C21.1556 11.6666 20.8223 11.3333 20.8223 10.8333V0.833289C20.8223 0.333296 21.1556 0 21.6556 0C22.1555 0 22.4888 0.333296 22.4888 0.833289V10.8332C22.4889 11.3333 22.1555 11.6666 21.6556 11.6666Z" fill="black"/>
<path d="M19.1556 11.6666C18.6556 11.6666 18.3223 11.3333 18.3223 10.8333V0.833289C18.3223 0.333296 18.6556 0 19.1556 0C19.6555 0 19.9888 0.333296 19.9888 0.833289V10.8332C19.9888 11.3333 19.6555 11.6666 19.1556 11.6666Z" fill="black"/>
<path d="M16.6556 11.6666C16.1556 11.6666 15.8223 11.3333 15.8223 10.8333V0.833289C15.8223 0.333296 16.1556 0 16.6556 0C17.1555 0 17.4888 0.333296 17.4888 0.833289V10.8332C17.4888 11.3333 17.1555 11.6666 16.6556 11.6666Z" fill="black"/>
<path d="M14.1556 10.8333C13.6556 10.8333 13.3223 10.5 13.3223 10V1.66666C13.3223 1.16667 13.6556 0.833374 14.1556 0.833374C14.6555 0.833374 14.9888 1.16667 14.9888 1.66666V9.99995C14.9889 10.4999 14.6555 10.8333 14.1556 10.8333Z" fill="black"/>
<path d="M11.6556 9.99997C11.1556 9.99997 10.8223 9.66668 10.8223 9.16668V2.49998C10.8223 1.99998 11.1556 1.66669 11.6556 1.66669C12.1555 1.66669 12.4888 1.99998 12.4888 2.49998V9.16668C12.4888 9.66668 12.1555 9.99997 11.6556 9.99997Z" fill="black"/>
<path d="M9.15555 9.16667C8.65556 9.16667 8.32227 8.83337 8.32227 8.33338V3.33335C8.32227 2.83336 8.65556 2.50006 9.15555 2.50006C9.65555 2.50006 9.98884 2.83336 9.98884 3.33335V8.33338C9.98884 8.83327 9.65555 9.16667 9.15555 9.16667Z" fill="black"/>
<path d="M6.65555 8.3333C6.15556 8.3333 5.82227 8.00001 5.82227 7.50002V4.16666C5.82227 3.66667 6.15556 3.33337 6.65555 3.33337C7.15555 3.33337 7.48884 3.66667 7.48884 4.16666V7.50002C7.48894 8.00001 7.15555 8.3333 6.65555 8.3333Z" fill="black"/>
</svg>
