<svg width="51" height="50" viewBox="0 0 51 50" fill="none" xmlns="http://www.w3.org/2000/svg">
<path d="M41.8226 24.2562C36.9685 22.7609 31.3516 25.8258 26.8247 27.2539C26.382 27.3937 25.9329 27.5211 25.4806 27.6359C22.3544 28.4297 19.026 28.6219 15.8489 28.0992C12.663 27.575 9.43649 25.6117 6.23706 27.1922C3.88965 28.3515 2.38867 30.7789 2.38867 33.3156C2.38867 41.7625 10.443 44.6812 17.5553 46.0187C23.5481 47.1453 33.0699 47.6476 39.9386 44.8383C44.4734 42.9828 47.8519 39.6836 48.2931 34.1664C48.6458 29.7398 46.2363 25.6156 41.8226 24.2562Z" fill="white"/>
<path d="M28.5062 8.93205L33.1214 9.83752L30.1481 8.08674C26.9765 6.21955 23.1401 5.78362 19.6174 6.88987L6.70497 10.9438C5.888 11.2 5.41421 12.0352 5.62204 12.8524C5.85216 13.7547 6.81645 14.2742 7.71545 13.9797L21.9202 9.3344C24.043 8.64065 26.3132 8.50158 28.5062 8.93205Z" fill="#5C4124"/>
<path d="M6.23706 29.4953C9.43649 27.9148 12.6622 29.8781 15.8489 30.4023C19.0268 30.925 22.3552 30.7328 25.4806 29.939C25.9329 29.8242 26.382 29.6969 26.8247 29.557C31.3515 28.1289 36.9685 25.0633 41.8225 26.5594C45.5634 27.7117 47.8567 30.8515 48.2564 34.4758C48.2668 34.3711 48.2835 34.2719 48.2923 34.1656C48.6458 29.7398 46.2363 25.6156 41.8225 24.2562C36.9685 22.7609 31.3515 25.8258 26.8247 27.2539C26.382 27.3937 25.9329 27.5211 25.4806 27.6359C22.3544 28.4297 19.026 28.6219 15.8489 28.0992C12.663 27.575 9.43649 25.6117 6.23706 27.1922C3.88965 28.3515 2.38867 30.7789 2.38867 33.3156C2.38867 33.7773 2.41734 34.2195 2.46352 34.6484C2.79079 32.4789 4.19144 30.5055 6.23706 29.4953Z" fill="#D1D1D1"/>
<path d="M30.7095 18.4172C28.7403 16.9352 26.3451 16.2547 23.922 15.8922C21.5085 15.5305 19.0154 15.4305 16.6465 16.0117C15.0109 16.4133 13.4701 17.1867 12.2064 18.286C11.5734 18.8367 11.0112 19.4672 10.543 20.1594C9.49353 21.7102 8.85253 24.0719 10.16 25.7141C10.7978 26.5157 11.7613 27.0203 12.7399 27.3055C13.7791 27.6078 14.8158 27.9289 15.8486 28.0992C19.486 28.6977 23.3216 28.3594 26.8244 27.2539C30.4228 26.1188 33.2918 24.6953 36.1592 22.2141C33.9089 21.6172 32.4764 19.7461 30.7095 18.4172Z" fill="#FBC997"/>
<path d="M11.0216 20.2758C11.5997 19.6687 12.2598 19.1383 12.9772 18.6976C14.4081 17.8187 16.058 17.3054 17.7389 17.175C20.1731 16.9859 22.6145 17.489 24.9341 18.2367C27.2632 18.9875 29.5103 20.0469 31.2031 21.8281C31.9484 22.6117 32.5926 23.5101 33.3045 24.3351C34.272 23.7211 35.2164 23.0297 36.1583 22.2148C33.9081 21.6179 32.4756 19.7469 30.7094 18.4179C28.7403 16.9359 26.3451 16.2554 23.922 15.8929C21.5085 15.5312 19.0154 15.4312 16.6464 16.0125C15.0109 16.414 13.4701 17.1875 12.2064 18.2867C11.5734 18.8375 11.012 19.4679 10.543 20.1601C10.0135 20.9429 9.58827 21.932 9.46484 22.932C9.74513 21.9297 10.3455 20.9844 11.0216 20.2758Z" fill="#FBC188"/>
<path d="M17.406 46.7859C20.3116 47.3328 23.781 47.7008 27.3371 47.7008C31.8209 47.7008 36.4433 47.1148 40.2447 45.5586C45.6888 43.3312 48.6637 39.5187 49.0865 34.2265C49.4855 29.2351 46.6627 24.9281 42.0618 23.5101C40.0918 22.9031 38.0311 22.9906 35.9846 23.407L36.687 22.8C36.9067 22.6101 37.0023 22.3164 36.9354 22.0359C36.8693 21.7562 36.6511 21.5343 36.3685 21.4593C34.9686 21.0875 33.8936 20.1281 32.755 19.1117C32.2581 18.6679 31.7445 18.2093 31.1959 17.7968C29.3764 16.4281 27.1038 15.5773 24.0437 15.1195C21.1007 14.6781 18.6179 14.7226 16.4544 15.2531C12.7908 16.1523 9.89632 18.6922 8.71146 22.0461L10.2164 22.5578C11.2245 19.7039 13.7009 17.5398 16.8406 16.7687C18.7955 16.289 21.0728 16.2539 23.8032 16.664C26.5878 17.0804 28.6287 17.8343 30.2268 19.0367C30.7221 19.4093 31.1887 19.8265 31.6832 20.2672C32.5893 21.0765 33.5186 21.9062 34.6557 22.4742L32.4205 24.4078C31.4984 24.7226 30.5923 25.0617 29.7124 25.3922C28.6111 25.8062 27.5712 26.1968 26.5822 26.5093C23.0898 27.6109 19.4237 27.8937 15.9814 27.3273C15.1143 27.1843 14.2424 26.9289 13.3203 26.6586C12.9604 26.5531 12.5989 26.4476 12.2358 26.3476C11.7899 26.1226 10.6878 25.4468 10.1392 24.5851L8.7887 25.4133C8.87629 25.5515 8.97822 25.6789 9.08014 25.8062C8.02826 25.782 6.96205 25.9586 5.87991 26.4929C3.2753 27.7804 1.59277 30.4578 1.59277 33.3156C1.59277 43.8133 13.4947 46.0508 17.406 46.7859ZM6.59576 27.8898C7.35382 27.5156 8.12302 27.3703 8.90575 27.3703C9.87721 27.3703 10.871 27.5937 11.8894 27.8758C11.7954 28.4726 11.5351 29.4047 10.7921 29.7695L11.5048 31.1672C12.7725 30.5453 13.2486 29.2336 13.4286 28.3195C13.7168 28.4023 14.0067 28.4843 14.2997 28.5601C14.2185 29.2289 13.9398 30.5312 12.9747 31.4781L14.1006 32.5828C15.3261 31.3812 15.7282 29.8086 15.8604 28.8875C16.3414 28.9633 16.8263 29.0226 17.3136 29.0679C17.3845 30.0047 17.3558 31.8664 16.1948 33.0062L17.3208 34.1109C18.8472 32.6133 18.9842 30.4109 18.9173 29.1586C19.2924 29.1679 19.6674 29.1742 20.044 29.1656C20.3235 30.0406 20.7034 31.9711 19.3154 33.4906L20.5011 34.5336C22.2378 32.6336 22.0116 30.3656 21.6716 29.0718C21.9455 29.0476 22.2195 29.0179 22.4942 28.9843C22.5889 30.5047 22.8724 33.5234 23.6647 34.7961L25.0239 33.9812C24.4912 33.1265 24.1807 30.5539 24.074 28.7429C24.2746 28.7054 24.4745 28.6609 24.6752 28.6187C24.7444 30 25.1832 32.4289 27.2471 34.1539L28.2799 32.9648C26.5066 31.4828 26.2709 29.2289 26.259 28.2289C26.5297 28.1531 26.8012 28.0828 27.0696 27.9984C27.0704 27.9984 27.0712 27.9976 27.072 27.9976C27.3132 29.4281 28.1246 31.9453 30.8646 33.0609L31.4753 31.6172C29.2529 30.7125 28.7266 28.4922 28.6008 27.4758C28.9312 27.357 29.2752 27.2273 29.6153 27.1008C29.9457 28.4937 31.0063 30.382 33.5648 31.2117L34.0648 29.7281C31.8074 28.9961 31.2611 27.3109 31.1282 26.5375C34.5665 25.257 38.3472 24.0047 41.5856 25.0031C45.4635 26.1984 47.8396 29.8562 47.5004 34.1062C47.1277 38.7664 44.4809 42.1351 39.634 44.1187C33.1427 46.7742 24.0517 46.4461 17.707 45.2531C7.79893 43.389 3.18532 39.5968 3.18532 33.3156C3.18532 31.0429 4.52386 28.9133 6.59576 27.8898Z" fill="black"/>
<path d="M48.0093 4.13513L40.7974 11.2109L46.0672 2.75076L44.7079 1.93591L38.0789 12.5781C36.8328 12.3945 35.8239 12.4953 35.7435 12.5047C35.323 12.5508 35.0133 12.9101 35.0364 13.3242C35.0603 13.7383 35.409 14.0625 35.8318 14.0625C36.2698 14.0625 36.6249 14.2531 36.8973 14.4758L35.9481 15.9992C35.7379 16.3367 35.8183 16.7758 36.1352 17.0203C36.2809 17.132 36.4545 17.1875 36.6281 17.1875C36.8328 17.1875 37.0374 17.1101 37.1919 16.9586L37.7517 16.4093C37.8058 17.0992 37.7732 18.0687 37.4483 19.3422L38.9931 19.7211C39.5942 17.3601 39.3554 15.8187 39.1348 15.0515L39.5648 14.6297C39.9279 14.8031 40.2663 15.0172 40.5466 15.2961C41.3086 16.0531 41.5993 17.1828 41.4121 18.6531L42.9919 18.8468C43.2428 16.8781 42.8016 15.314 41.6805 14.1984C41.393 13.9125 41.0745 13.6765 40.7409 13.4758L49.1352 5.23982L48.0093 4.13513Z" fill="black"/>
<path d="M30.5583 7.4172C27.1908 5.43595 23.1163 4.97189 19.3754 6.14611L6.46303 10.2C5.25031 10.5805 4.54162 11.8289 4.85058 13.0422C5.01381 13.682 5.44539 14.232 6.03543 14.55C6.39615 14.7445 6.79906 14.843 7.20357 14.843C7.46156 14.843 7.71955 14.8031 7.96879 14.7219L22.1735 10.0758C24.1602 9.42502 26.2966 9.29533 28.351 9.69845L32.9662 10.6039C33.346 10.6797 33.7259 10.4735 33.8652 10.1195C34.0046 9.76486 33.8644 9.3633 33.5324 9.16798L30.5583 7.4172ZM21.6687 8.59298L7.46475 13.2391C7.24338 13.3125 7.00689 13.2906 6.80145 13.1805C6.59601 13.0703 6.45188 12.8867 6.39535 12.6633C6.28944 12.2469 6.53231 11.8188 6.94796 11.6883L19.8603 7.63439C21.0603 7.25783 22.2993 7.07189 23.5344 7.07189C25.2583 7.07189 26.9719 7.43439 28.5557 8.14611C26.2624 7.71486 23.8839 7.86876 21.6687 8.59298Z" fill="black"/>
</svg>
