<svg width="239" height="19" viewBox="0 0 239 19" fill="none" xmlns="http://www.w3.org/2000/svg">
<path d="M127.42 17.8L127.44 17.82H125.74C125.68 17.82 125.62 17.82 125.55 17.82C125.48 17.8 125.41 17.76 125.36 17.71L122.12 14.57C121.77 15.05 121.38 15.5 120.95 15.91C120.51 16.33 120.02 16.7 119.49 17.01C118.95 17.33 118.36 17.59 117.75 17.76C117.1 17.95 116.43 18.04 115.76 18.03C115.17 18.03 114.58 17.93 114.01 17.74C113.45 17.55 112.92 17.26 112.46 16.89C112 16.51 111.62 16.03 111.35 15.49C111.06 14.89 110.91 14.23 110.93 13.57C110.93 12.96 111.05 12.36 111.28 11.8C111.51 11.24 111.84 10.72 112.24 10.26C112.66 9.78998 113.14 9.37998 113.68 9.03998C114.23 8.68998 114.83 8.39998 115.46 8.19998C115.12 7.84998 114.82 7.50997 114.56 7.17997C114.32 6.86997 114.1 6.54998 113.91 6.19998C113.74 5.87998 113.61 5.53997 113.52 5.18997C113.43 4.82997 113.39 4.44997 113.39 4.07997C113.39 3.54997 113.49 3.02997 113.7 2.54997C113.9 2.09997 114.19 1.68997 114.56 1.34997C114.95 1.00997 115.39 0.739979 115.87 0.559979C116.41 0.369979 116.98 0.269981 117.55 0.279981C118.03 0.279981 118.5 0.36997 118.95 0.54997C119.39 0.71997 119.79 0.959976 120.15 1.25998C120.5 1.54998 120.79 1.89997 121 2.29997C121.21 2.67997 121.32 3.11997 121.32 3.54997H121.25C121.25 3.54997 121.16 3.52998 121.13 3.50998C121.09 3.46998 121.06 3.40997 121.05 3.34997C121.01 3.06997 120.93 2.78998 120.8 2.52998C120.63 2.18998 120.41 1.86997 120.15 1.59997C119.84 1.27997 119.47 1.02998 119.07 0.839978C118.88 0.739978 118.68 0.659982 118.47 0.609982C117.66 0.449982 116.81 0.539971 116.05 0.879971L115.97 0.91998C115.49 1.16998 115.14 1.59998 114.97 2.10998C114.62 3.16998 114.84 4.32997 115.54 5.18997C117.12 6.99997 120.29 10.15 123.07 12.84C123.33 12.39 123.55 11.92 123.73 11.43C123.96 10.82 124.12 10.18 124.2 9.52998C124.21 9.47998 124.23 9.42997 124.25 9.37997C124.27 9.34997 124.31 9.32997 124.37 9.32997H124.47C124.43 10.03 124.29 10.71 124.05 11.37C123.84 11.95 123.58 12.51 123.26 13.04C125.95 15.65 128.23 17.79 128.23 17.79L127.39 17.81L127.42 17.8ZM121.93 14.39L115.65 8.37997C115.03 8.56997 114.44 8.84998 113.9 9.19998C113.38 9.52998 112.91 9.92998 112.5 10.4C112.11 10.84 111.8 11.34 111.57 11.88C111.35 12.41 111.23 12.99 111.24 13.57C111.22 14.22 111.37 14.86 111.67 15.44C111.94 15.95 112.31 16.4 112.76 16.75C113.2 17.09 113.7 17.36 114.23 17.52C114.73 17.68 115.24 17.77 115.77 17.78C116.43 17.78 117.09 17.69 117.72 17.51C118.88 17.17 119.95 16.55 120.82 15.71C121.23 15.31 121.61 14.87 121.94 14.39H121.93Z" fill="#1D1D1B"/>
<path d="M12.82 12.98C12.82 15.91 10.25 17.76 5.61 17.76H0V0.27002H5.85C9.86 0.27002 11.66 1.97002 11.66 4.47002C11.66 6.70002 9.79 8.10003 8.01 8.53003V8.58002C10.63 8.77002 12.82 10.48 12.82 12.98V12.98ZM10.32 13.41C10.32 10.82 9.55 8.95003 6.55 8.95003H2.06V17.38C3.15 17.5 4.25 17.56 5.35 17.55C9.55 17.55 10.32 15.98 10.32 13.41ZM2.06 8.56003H6.07C8.74 8.56003 9.22 6.94003 9.22 4.73003C9.22 2.52003 8.84 0.430023 5.64 0.430023H2.06V8.56003V8.56003Z" fill="#1D1D1B"/>
<path d="M33.3 17.73H31.41L26.68 9.87004C26.68 9.87004 26.71 9.87005 26.68 9.86005L25.77 9.92004H22.86V17.78H20.8V0.290039H25.43C29.71 0.290039 32.26 1.76004 32.18 4.78004C32.09 8.38004 28.56 9.54004 26.89 9.82004L33.31 17.74L33.3 17.73ZM29.91 4.76004C29.91 2.17004 29 0.440033 25.42 0.440033H22.85V9.36005C23.89 9.47005 24.93 9.53004 25.97 9.53004C28.93 9.53004 29.9 7.26004 29.9 4.76004H29.91Z" fill="#1D1D1B"/>
<path d="M54.6403 15.2199C51.1703 18.6899 45.5403 18.6899 42.0703 15.2199C38.6003 11.7499 38.6003 6.11986 42.0703 2.64986C45.5403 -0.820137 51.1703 -0.820137 54.6403 2.64986C56.3103 4.31986 57.2403 6.57986 57.2403 8.93986C57.2403 11.2999 56.3003 13.5599 54.6303 15.2299L54.6403 15.2199ZM52.7103 4.37986C49.3003 0.969859 45.1603 -0.210136 42.1903 2.75986C39.2203 5.72986 40.6603 10.4899 44.0703 13.8999C47.4803 17.3099 51.5603 18.0599 54.5203 15.0999C57.4903 12.1299 56.1103 7.78986 52.7103 4.37986Z" fill="#1D1D1B"/>
<path d="M84.78 0.280029L79.27 18.06H79.17L74.13 2.81003L69.01 18.06H68.92L63.01 0.280029H65.49L69.99 14.45L74.59 0.280029H75.84L80.31 13.71L84.29 0.280029H84.79H84.78Z" fill="#1D1D1B"/>
<path d="M102.27 13.27C102.27 16.42 99.58 18.05 96.74 18.05C94.88 18 93.05 17.54 91.38 16.71L92.47 14.36C93.67 15.51 95.01 17.99 96.82 17.99C99.25 17.99 101.16 16.18 101.16 13.97C101.16 11.52 98.91 11.03 97.07 10.15L95.87 9.57999C93.8 8.59999 91.7 6.8 91.7 4.2C91.7 1.77 93.77 0 96.79 0C98.47 0.03 100.12 0.489996 101.57 1.34L100.23 3.89C99.13 2.86 98.46 0.0699921 96.61 0.0699921C94.26 0.0699921 92.85 1.81 92.85 3.59C92.85 5.78 94.63 6.71 96.67 7.7L97.87 8.26999C100.25 9.41999 102.26 10.5 102.26 13.27H102.27Z" fill="#1D1D1B"/>
<path d="M148.64 12.98C148.64 15.91 146.07 17.76 141.43 17.76H135.82V0.27002H141.67C145.68 0.27002 147.48 1.97002 147.48 4.47002C147.48 6.70002 145.61 8.10003 143.83 8.53003V8.58002C146.45 8.77002 148.63 10.48 148.63 12.98H148.64ZM146.14 13.41C146.14 10.82 145.37 8.95003 142.37 8.95003H137.88V17.38C138.97 17.5 140.07 17.56 141.17 17.55C145.38 17.55 146.14 15.98 146.14 13.41V13.41ZM137.88 8.56003H141.89C144.56 8.56003 145.04 6.94003 145.04 4.73003C145.04 2.52003 144.66 0.430023 141.46 0.430023H137.88V8.56003V8.56003Z" fill="#1D1D1B"/>
<path d="M169.57 17.73H167.67L162.94 9.87004C162.94 9.87004 162.97 9.87005 162.94 9.86005L162.03 9.92004H159.12V17.78H157.06V0.290039H161.69C165.97 0.290039 168.52 1.76004 168.44 4.78004C168.35 8.38004 164.82 9.54004 163.15 9.82004L169.57 17.74V17.73ZM166.18 4.76004C166.18 2.17004 165.27 0.440033 161.69 0.440033H159.12V9.36005C160.16 9.47005 161.2 9.53004 162.25 9.53004C165.21 9.53004 166.18 7.26004 166.18 4.76004V4.76004Z" fill="#1D1D1B"/>
<path d="M190.72 15.2199C187.25 18.6899 181.62 18.6899 178.15 15.2199C174.68 11.7499 174.68 6.11986 178.15 2.64986C181.62 -0.820137 187.25 -0.820137 190.72 2.64986C192.39 4.31986 193.32 6.57986 193.32 8.93986C193.32 11.2999 192.38 13.5599 190.71 15.2299L190.72 15.2199ZM188.79 4.37986C185.38 0.969859 181.24 -0.210136 178.27 2.75986C175.3 5.72986 176.74 10.4899 180.15 13.8999C183.56 17.3099 187.64 18.0599 190.61 15.0999C193.58 12.1299 192.2 7.78986 188.8 4.37986H188.79Z" fill="#1D1D1B"/>
<path d="M220.28 0.280029L214.77 18.06H214.67L209.63 2.81003L204.51 18.06H204.41L198.5 0.280029H200.98L205.48 14.45L210.08 0.280029H211.33L215.8 13.71L219.77 0.280029H220.27H220.28Z" fill="#1D1D1B"/>
<path d="M238.35 13.27C238.35 16.42 235.66 18.05 232.82 18.05C230.96 18 229.13 17.54 227.46 16.71L228.55 14.36C229.75 15.51 231.09 17.99 232.9 17.99C235.32 17.99 237.23 16.18 237.23 13.97C237.23 11.52 234.98 11.03 233.13 10.15L231.93 9.57999C229.86 8.59999 227.76 6.8 227.76 4.2C227.76 1.77 229.83 0 232.85 0C234.53 0.03 236.18 0.489996 237.63 1.34L236.29 3.89C235.18 2.86 234.52 0.0699921 232.67 0.0699921C230.32 0.0699921 228.91 1.81 228.91 3.59C228.91 5.78 230.69 6.71 232.73 7.7L233.93 8.26999C236.31 9.41999 238.32 10.5 238.32 13.27H238.35Z" fill="#1D1D1B"/>
</svg>
