<svg width="113" height="174" viewBox="0 0 113 174" fill="none" xmlns="http://www.w3.org/2000/svg">
<path d="M85.19 117.58C85.19 126.35 77.5 131.89 63.62 131.89H46.82V79.5601H64.34C76.34 79.5601 81.74 84.6601 81.74 92.1401C81.74 98.8201 76.14 102.99 70.81 104.29V104.43C78.65 105.01 85.19 110.11 85.19 117.59V117.58ZM77.71 118.86C77.71 111.1 75.41 105.51 66.42 105.51H52.98V130.74C56.25 131.11 59.54 131.27 62.83 131.24C75.41 131.24 77.71 126.55 77.71 118.85V118.86ZM52.98 104.36H64.99C72.97 104.36 74.4 99.53 74.4 92.91C74.4 86.29 73.25 80.0301 63.69 80.0301H52.98V104.36Z" fill="#1D1D1B"/>
<path d="M66.15 81.3301C66.15 90.1001 58.46 95.6401 44.58 95.6401H27.78V43.3101H45.3C57.3 43.3101 62.7 48.4101 62.7 55.8901C62.7 62.5701 57.1 66.7401 51.77 68.0401V68.1801C59.61 68.7601 66.15 73.8601 66.15 81.3401V81.3301ZM58.67 82.6101C58.67 74.8501 56.37 69.2601 47.38 69.2601H33.94V94.4901C37.21 94.8601 40.5 95.0201 43.79 94.9901C56.37 94.9901 58.67 90.3001 58.67 82.6001V82.6101ZM33.94 68.1101H45.95C53.93 68.1101 55.36 63.2801 55.36 56.6601C55.36 50.0401 54.21 43.7801 44.65 43.7801H33.94V68.1101Z" fill="#1D1D1B"/>
<path d="M56.56 32.6601C58.0346 32.6601 59.23 31.4647 59.23 29.9901C59.23 28.5155 58.0346 27.3201 56.56 27.3201C55.0854 27.3201 53.89 28.5155 53.89 29.9901C53.89 31.4647 55.0854 32.6601 56.56 32.6601Z" fill="#1D1D1B"/>
<path d="M56.56 147.69C58.0346 147.69 59.23 146.495 59.23 145.02C59.23 143.545 58.0346 142.35 56.56 142.35C55.0854 142.35 53.89 143.545 53.89 145.02C53.89 146.495 55.0854 147.69 56.56 147.69Z" fill="#1D1D1B"/>
<path d="M112.47 56.74C112.47 25.9556 87.5166 1 56.735 1C25.9534 1 1 25.9556 1 56.74V117.59C1 148.374 25.9534 173.33 56.735 173.33C87.5166 173.33 112.47 148.374 112.47 117.59V56.74Z" stroke="#1D1D1B" stroke-miterlimit="10"/>
<path d="M101.68 116.56V112.53L99.71 111.76V110.64L108.23 114.02V115.05L99.71 118.43V117.31L101.68 116.54V116.56ZM102.64 116.19L106.9 114.55L102.64 112.91V116.2V116.19Z" fill="#1D1D1B"/>
<path d="M108.22 121.27L108.08 122.3L100.7 126.1V126.16L107.42 127.09L107.28 128.11L98.84 126.94L98.98 125.91L106.36 122.11V122.05L99.64 121.12L99.78 120.1L108.22 121.27Z" fill="#1D1D1B"/>
<path d="M106.36 131.78L105.5 134.19C104.65 136.56 102.47 137.56 100.08 136.71C97.69 135.86 96.63 133.71 97.47 131.33L98.33 128.92L106.36 131.78ZM98.41 131.62C97.73 133.53 98.58 135.03 100.44 135.69C102.29 136.35 103.9 135.73 104.59 133.82L105.09 132.42L98.92 130.22L98.42 131.62H98.41Z" fill="#1D1D1B"/>
<path d="M92.34 145.91C91.18 145.1 90.88 143.75 91.99 142.15L93.59 139.85L100.58 144.71L98.91 147.1C98.04 148.35 96.84 148.45 95.96 147.84C95.28 147.37 94.97 146.61 95.21 145.79C94.4 146.51 93.33 146.62 92.33 145.92L92.34 145.91ZM92.99 145.12C93.82 145.7 94.74 145.56 95.49 144.49L96.46 143.09L93.76 141.21L92.78 142.62C92.04 143.68 92.16 144.54 92.99 145.12ZM99.24 145.03L97.13 143.56L96.18 144.93C95.62 145.74 95.77 146.48 96.41 146.93C97.02 147.35 97.7 147.23 98.27 146.42L99.24 145.03Z" fill="#1D1D1B"/>
<path d="M85.76 149.32L89.31 150.04L89.38 149.97L90.59 148.75L88.45 146.62L89.18 145.89L95.22 151.9L93.28 153.85C92.01 155.12 90.41 155.09 89.27 153.95C88.37 153.05 88.18 151.92 88.73 150.86L84.98 150.12L85.78 149.32H85.76ZM91.23 149.4L90.1 150.53C89.25 151.38 89.14 152.36 89.99 153.2C90.84 154.05 91.82 153.93 92.66 153.08L93.79 151.95L91.22 149.39L91.23 149.4Z" fill="#1D1D1B"/>
<path d="M86.52 154.49C87.97 156.67 87.28 159.25 85.35 160.54C83.43 161.82 80.78 161.47 79.32 159.3C77.87 157.13 78.56 154.54 80.48 153.26C82.41 151.97 85.06 152.32 86.52 154.5V154.49ZM80.2 158.71C81.35 160.43 83.37 160.66 84.79 159.71C86.23 158.75 86.78 156.79 85.63 155.08C84.48 153.37 82.46 153.13 81.03 154.09C79.6 155.04 79.05 157 80.2 158.72V158.71Z" fill="#1D1D1B"/>
<path d="M79.04 164.35L78.01 164.71L73.93 159.05L74.12 166.08L73.34 166.35L69.1 160.74L69.45 167.71L68.42 168.07L68.05 159.17L68.83 158.9L73.15 164.52L73.01 157.44L73.79 157.17L79.05 164.35H79.04Z" fill="#1D1D1B"/>
<path d="M64.45 161.95L63.65 162.44C63.32 161.58 62.51 161.04 61.49 161.16C60.59 161.26 59.87 161.83 59.98 162.8C60.08 163.67 60.74 163.98 61.77 164.27L62.35 164.42C63.65 164.79 64.47 165.39 64.6 166.49C64.74 167.8 63.77 168.75 62.4 168.91C61 169.06 60.09 168.31 59.65 167.42L60.39 166.93C60.81 167.66 61.41 168.06 62.27 167.97C63.08 167.88 63.65 167.36 63.57 166.59C63.5 165.99 63.1 165.57 62.05 165.28L61.45 165.12C60.01 164.72 59.07 164.2 58.92 162.9C58.75 161.34 59.96 160.36 61.38 160.2C62.81 160.04 64.03 160.77 64.45 161.95Z" fill="#1D1D1B"/>
<path d="M47.87 161.71L51.85 162.33L52.91 160.5L54.01 160.67L49.37 168.57L48.35 168.41L46.31 159.48L47.41 159.65L47.87 161.71ZM48.09 162.71L49.06 167.17L51.33 163.21L48.08 162.71H48.09Z" fill="#1D1D1B"/>
<path d="M41.82 167.02L40.84 166.65L38.77 158.61L38.71 158.59L36.31 164.95L35.34 164.59L38.35 156.62L39.33 156.99L41.4 165.03L41.46 165.05L43.86 158.69L44.83 159.06L41.82 167.03V167.02Z" fill="#1D1D1B"/>
<path d="M32.03 162.89L29.87 161.52C27.74 160.17 27.25 157.82 28.6 155.68C29.95 153.54 32.29 152.97 34.42 154.31L36.58 155.68L32.03 162.88V162.89ZM33.92 155.17C32.21 154.09 30.55 154.59 29.5 156.25C28.45 157.91 28.71 159.62 30.42 160.71L31.68 161.5L35.18 155.96L33.92 155.17Z" fill="#1D1D1B"/>
<path d="M21.3 146.13C22.34 145.17 23.73 145.17 25.05 146.61L26.95 148.68L20.68 154.44L18.71 152.29C17.68 151.17 17.84 149.98 18.63 149.25C19.24 148.69 20.04 148.55 20.8 148.97C20.27 148.02 20.4 146.96 21.3 146.13ZM20.66 153.06L22.55 151.32L21.42 150.09C20.75 149.37 19.99 149.35 19.42 149.88C18.87 150.38 18.84 151.08 19.52 151.81L20.66 153.06ZM21.93 146.94C21.19 147.62 21.11 148.55 22 149.52L23.15 150.77L25.57 148.55L24.41 147.29C23.53 146.34 22.67 146.26 21.93 146.95V146.94Z" fill="#1D1D1B"/>
<path d="M19.39 138.94L17.91 142.24L17.96 142.32L18.88 143.77L21.43 142.15L21.98 143.02L14.8 147.59L13.33 145.27C12.36 143.75 12.74 142.2 14.11 141.33C15.18 140.65 16.33 140.71 17.25 141.48L18.79 137.98L19.4 138.93L19.39 138.94ZM18.11 144.26L17.25 142.91C16.61 141.9 15.68 141.58 14.67 142.22C13.66 142.86 13.55 143.84 14.2 144.85L15.06 146.2L18.11 144.26Z" fill="#1D1D1B"/>
<path d="M14.18 138.57C11.74 139.51 9.36998 138.26 8.52998 136.1C7.69998 133.95 8.61998 131.43 11.06 130.49C13.5 129.55 15.87 130.8 16.7 132.95C17.53 135.11 16.61 137.63 14.17 138.57H14.18ZM11.45 131.48C9.51998 132.22 8.84998 134.14 9.46998 135.74C10.09 137.35 11.88 138.32 13.81 137.58C15.74 136.84 16.41 134.92 15.79 133.3C15.17 131.7 13.38 130.73 11.46 131.47L11.45 131.48Z" fill="#1D1D1B"/>
<path d="M6.20998 129.09L6.08998 128.01L12.51 125.28L5.60999 123.91L5.51998 123.09L11.92 120.19L5.03999 118.99L4.91998 117.91L13.68 119.51L13.78 120.33L7.34998 123.31L14.29 124.73L14.38 125.55L6.21999 129.1L6.20998 129.09Z" fill="#1D1D1B"/>
<path d="M11.8 115.41L11.4 114.56C12.29 114.32 12.91 113.58 12.91 112.56C12.91 111.66 12.42 110.88 11.45 110.88C10.57 110.88 10.19 111.5 9.78999 112.5L9.56998 113.06C9.06998 114.31 8.36998 115.06 7.26998 115.06C5.94998 115.06 5.10999 113.99 5.10999 112.61C5.10999 111.23 5.95998 110.38 6.87998 110.04L7.28999 110.83C6.51999 111.17 6.04999 111.72 6.04999 112.58C6.04999 113.4 6.50998 114.02 7.26998 114.02C7.86998 114.02 8.33999 113.66 8.72999 112.65L8.95998 112.07C9.50998 110.68 10.14 109.8 11.44 109.8C13.01 109.8 13.85 111.11 13.85 112.54C13.85 113.97 13 115.11 11.77 115.39L11.8 115.41Z" fill="#1D1D1B"/>
<path d="M11.78 98.7098V102.74L13.75 103.51V104.63L5.22998 101.25V100.22L13.75 96.8398V97.9598L11.78 98.7298V98.7098ZM10.82 99.0798L6.55997 100.72L10.82 102.36V99.0698V99.0798Z" fill="#1D1D1B"/>
<path d="M5.23999 94.91V93.87L12.03 89.1V89.04H5.23999V88.01H13.76V89.05L6.96999 93.82V93.88H13.76V94.91H5.23999Z" fill="#1D1D1B"/>
<path d="M5.23999 85.5999V83.0499C5.23999 80.5299 6.96999 78.8599 9.49999 78.8599C12.03 78.8599 13.76 80.5299 13.76 83.0499V85.5999H5.23999ZM12.77 83.0799C12.77 81.0499 11.46 79.9299 9.49999 79.9299C7.53999 79.9299 6.23 81.0599 6.23 83.0799V84.5699H12.78V83.0799H12.77Z" fill="#1D1D1B"/>
<path d="M11.32 67.4399C12.74 67.4399 13.75 68.3799 13.75 70.3299V73.1399H5.22998V70.2299C5.22998 68.7099 6.14998 67.9399 7.22998 67.9399C8.05998 67.9399 8.73997 68.3799 9.01997 69.1999C9.26997 68.1399 10.09 67.4499 11.31 67.4499L11.32 67.4399ZM6.15998 72.1099H8.72998V70.4399C8.72998 69.4599 8.17998 68.9299 7.39998 68.9299C6.61998 68.9299 6.15998 69.4199 6.15998 70.4199V72.1099ZM11.23 68.4599C10.22 68.4599 9.53998 69.0999 9.53998 70.3999V72.0999H12.83V70.3899C12.83 69.0899 12.24 68.4599 11.24 68.4599H11.23Z" fill="#1D1D1B"/>
<path d="M13.75 60.4598L10.73 62.4498V64.2598H13.75V65.2898H5.22998V62.5398C5.22998 60.7398 6.37998 59.6398 7.99998 59.6398C9.26998 59.6398 10.21 60.3098 10.57 61.4498L13.75 59.3298V60.4598ZM9.81998 64.2598V62.6698C9.81998 61.4698 9.20998 60.6998 8.00998 60.6998C6.80998 60.6998 6.19997 61.4698 6.19997 62.6698V64.2598H9.81998Z" fill="#1D1D1B"/>
<path d="M9.30999 57.6498C6.69999 57.4598 5.08999 55.3298 5.24999 53.0198C5.40999 50.7198 7.31999 48.8398 9.91999 49.0298C12.53 49.2198 14.14 51.3498 13.98 53.6498C13.81 55.9598 11.91 57.8399 9.30999 57.6599V57.6498ZM9.84999 50.0798C7.78999 49.9298 6.36999 51.3799 6.23999 53.0899C6.11999 54.8099 7.31999 56.4498 9.37999 56.5998C11.44 56.7498 12.86 55.2998 12.99 53.5798C13.11 51.8698 11.91 50.2299 9.84999 50.0899V50.0798Z" fill="#1D1D1B"/>
<path d="M6.10998 45.68L6.45998 44.65L13.43 44.91L7.76997 40.74L8.02998 39.96L15.06 40.06L9.34998 36.05L9.69997 35.02L16.94 40.19L16.68 40.97L9.58997 40.92L15.26 45.16L15 45.94L6.09998 45.68H6.10998Z" fill="#1D1D1B"/>
<path d="M16.97 35.6199L17.08 34.6899C17.96 34.9499 18.88 34.6399 19.42 33.7699C19.89 32.9999 19.88 32.0799 19.05 31.5699C18.3 31.1099 17.65 31.4399 16.79 32.0799L16.31 32.4499C15.23 33.2499 14.24 33.5299 13.3 32.9499C12.18 32.2599 12.02 30.9099 12.74 29.7299C13.48 28.5299 14.64 28.2699 15.6 28.4699L15.53 29.3599C14.7 29.2399 14.01 29.4699 13.56 30.2099C13.13 30.9099 13.19 31.6799 13.85 32.0799C14.36 32.3899 14.95 32.3299 15.81 31.6799L16.31 31.3099C17.51 30.4099 18.5 29.9899 19.61 30.6799C20.95 31.4999 20.98 33.0599 20.23 34.2699C19.48 35.4999 18.16 36.0099 16.96 35.6199H16.97Z" fill="#1D1D1B"/>
<path d="M27.35 22.68L24.42 25.45L25.21 27.41L24.4 28.18L21.01 19.66L21.76 18.95L30.07 22.82L29.26 23.59L27.35 22.69V22.68ZM26.42 22.24L22.3 20.27L24.03 24.5L26.42 22.24Z" fill="#1D1D1B"/>
<path d="M26.82 14.68L27.71 14.13L35.34 17.4L35.39 17.37L31.82 11.59L32.7 11.05L37.17 18.3L36.28 18.85L28.65 15.58L28.6 15.61L32.17 21.39L31.29 21.93L26.82 14.68Z" fill="#1D1D1B"/>
<path d="M36.09 9.43987L38.49 8.56986C40.86 7.70986 43.02 8.75986 43.88 11.1399C44.75 13.5199 43.77 15.7099 41.4 16.5799L39 17.4499L36.09 9.43987ZM41.04 15.6599C42.95 14.9699 43.56 13.3499 42.89 11.4999C42.22 9.64986 40.71 8.80986 38.8 9.49986L37.4 10.0099L39.64 16.1699L41.04 15.6599Z" fill="#1D1D1B"/>
<path d="M55.92 11.22C56.04 12.63 55.19 13.73 53.24 13.89L50.44 14.12L49.74 5.62998L52.65 5.38998C54.17 5.25998 55.01 6.11998 55.1 7.19998C55.17 8.02998 54.78 8.73998 53.99 9.08998C55.06 9.24998 55.82 10.01 55.93 11.23L55.92 11.22ZM50.84 6.45998L51.05 9.01998L52.71 8.87998C53.69 8.79998 54.17 8.19998 54.11 7.42998C54.05 6.68998 53.52 6.23998 52.53 6.31998L50.84 6.45998ZM54.9 11.22C54.82 10.22 54.13 9.58999 52.82 9.68999L51.12 9.82999L51.39 13.11L53.1 12.97C54.39 12.86 54.98 12.22 54.89 11.22H54.9Z" fill="#1D1D1B"/>
<path d="M62.75 14.1199L61.05 10.9199H60.95L59.24 10.7499L58.96 13.7599L57.93 13.6599L58.72 5.17993L61.46 5.42993C63.25 5.59993 64.25 6.84993 64.09 8.45993C63.97 9.72993 63.22 10.5999 62.05 10.8499L63.87 14.2099L62.75 14.1099V14.1199ZM59.33 9.84993L60.92 9.99993C62.12 10.1099 62.94 9.56993 63.05 8.37993C63.16 7.18993 62.45 6.49993 61.26 6.38993L59.67 6.23993L59.33 9.84993Z" fill="#1D1D1B"/>
<path d="M66.2497 10.25C67.0097 7.74999 69.4497 6.63999 71.6697 7.30999C73.8797 7.97999 75.2897 10.25 74.5397 12.76C73.7797 15.26 71.3397 16.37 69.1297 15.7C66.9097 15.03 65.4897 12.75 66.2497 10.25ZM73.5197 12.45C74.1197 10.47 73.0197 8.75999 71.3797 8.25999C69.7297 7.75999 67.8597 8.56999 67.2597 10.55C66.6597 12.53 67.7597 14.24 69.4197 14.74C71.0597 15.24 72.9297 14.42 73.5297 12.45H73.5197Z" fill="#1D1D1B"/>
<path d="M78.62 9.77002L79.55 10.34L77.76 17.09L83.08 12.49L83.79 12.92L82.14 19.76L87.31 15.07L88.24 15.64L81.59 21.57L80.88 21.14L82.48 14.23L77.09 18.83L76.38 18.4L78.6 9.77002H78.62Z" fill="#1D1D1B"/>
<path d="M86.03 22.5699L86.92 22.8799C86.47 23.6799 86.57 24.6499 87.3 25.3599C87.95 25.9899 88.85 26.1799 89.53 25.4799C90.14 24.8499 89.96 24.1399 89.53 23.1599L89.28 22.6099C88.74 21.3799 88.68 20.3499 89.45 19.5599C90.37 18.6099 91.72 18.7599 92.71 19.7199C93.72 20.6999 93.72 21.8899 93.31 22.7799L92.46 22.5199C92.75 21.7299 92.68 21.0099 92.06 20.4099C91.48 19.8399 90.71 19.7299 90.17 20.2799C89.75 20.7099 89.68 21.2999 90.13 22.2799L90.38 22.8399C90.99 24.2099 91.19 25.2599 90.28 26.1999C89.18 27.3299 87.66 27.0199 86.64 26.0199C85.61 25.0199 85.39 23.6199 86.04 22.5399L86.03 22.5699Z" fill="#1D1D1B"/>
<path d="M96.41 35.52L94.34 32.05L92.25 32.4L91.68 31.44L100.74 29.98L101.27 30.87L95.68 38.14L95.11 37.18L96.41 35.51V35.52ZM97.04 34.71L99.86 31.11L95.36 31.88L97.04 34.71Z" fill="#1D1D1B"/>
<path d="M104.34 36.77L104.68 37.76L99.8 44.48L99.82 44.54L106.25 42.34L106.58 43.32L98.52 46.08L98.18 45.09L103.06 38.37L103.04 38.31L96.62 40.51L96.29 39.53L104.35 36.77H104.34Z" fill="#1D1D1B"/>
<path d="M107.41 46.97L107.73 49.5C108.05 52 106.54 53.87 104.03 54.19C101.52 54.51 99.6 53.07 99.28 50.57L98.96 48.03L107.41 46.96V46.97ZM100.25 50.42C100.51 52.43 101.95 53.39 103.9 53.14C105.85 52.89 107.01 51.61 106.75 49.6L106.56 48.12L100.06 48.94L100.25 50.42Z" fill="#1D1D1B"/>
<path d="M102.15 65.91C100.73 65.91 99.72 64.97 99.72 63.02V60.21H108.24V63.12C108.24 64.64 107.32 65.41 106.24 65.41C105.41 65.41 104.73 64.97 104.45 64.15C104.2 65.21 103.38 65.9 102.16 65.9L102.15 65.91ZM102.23 64.89C103.24 64.89 103.92 64.25 103.92 62.95V61.25H100.63V62.96C100.63 64.26 101.22 64.89 102.22 64.89H102.23ZM107.3 61.24H104.73V62.91C104.73 63.89 105.28 64.42 106.06 64.42C106.84 64.42 107.3 63.93 107.3 62.93V61.24Z" fill="#1D1D1B"/>
<path d="M99.71 72.9198L102.73 70.9298V69.1198H99.71V68.0898H108.23V70.8398C108.23 72.6398 107.08 73.7398 105.46 73.7398C104.19 73.7398 103.25 73.0698 102.89 71.9298L99.71 74.0498V72.9198ZM103.64 69.1198V70.7098C103.64 71.9098 104.25 72.6798 105.45 72.6798C106.65 72.6798 107.26 71.9098 107.26 70.7098V69.1198H103.64Z" fill="#1D1D1B"/>
<path d="M103.97 75.54C106.58 75.54 108.35 77.55 108.35 79.87C108.35 82.19 106.59 84.19 103.97 84.19C101.35 84.19 99.59 82.18 99.59 79.87C99.59 77.56 101.35 75.54 103.97 75.54ZM103.97 83.13C106.03 83.13 107.35 81.58 107.35 79.87C107.35 78.16 106.03 76.6 103.97 76.6C101.91 76.6 100.59 78.15 100.59 79.87C100.59 81.59 101.91 83.13 103.97 83.13Z" fill="#1D1D1B"/>
<path d="M108.23 85.5498V86.6398L101.54 88.6198L108.23 90.7698V91.5998L101.54 93.7498L108.23 95.7298V96.8198L99.71 94.2298V93.3998L106.44 91.1798L99.71 88.9698V88.1398L108.23 85.5498Z" fill="#1D1D1B"/>
<path d="M101.67 98.5698L102.07 99.4198C101.18 99.6598 100.56 100.4 100.56 101.42C100.56 102.32 101.05 103.1 102.02 103.1C102.9 103.1 103.28 102.48 103.68 101.48L103.9 100.92C104.4 99.6698 105.1 98.9198 106.2 98.9198C107.52 98.9198 108.36 99.9898 108.36 101.37C108.36 102.75 107.51 103.6 106.59 103.94L106.18 103.15C106.95 102.81 107.42 102.26 107.42 101.4C107.42 100.58 106.96 99.9598 106.2 99.9598C105.6 99.9598 105.13 100.32 104.74 101.33L104.51 101.91C103.96 103.3 103.33 104.18 102.03 104.18C100.46 104.18 99.62 102.87 99.62 101.45C99.62 100.03 100.47 98.8798 101.7 98.5998L101.67 98.5698Z" fill="#1D1D1B"/>
<path d="M56.73 156.32C35.37 156.32 18 138.95 18 117.59V56.73C18 35.38 35.37 18 56.73 18C78.09 18 95.46 35.37 95.46 56.73V117.59C95.46 138.94 78.09 156.32 56.73 156.32V156.32Z" stroke="#1D1D1B" stroke-miterlimit="10"/>
</svg>
